<?xml version="1.0" ?><!DOCTYPE svg  PUBLIC '-//W3C//DTD SVG 1.1//EN'  'http://www.w3.org/Graphics/SVG/1.1/DTD/svg11.dtd'><svg enable-background="new 0 0 512 512" height="512px" id="Layer_1" version="1.1" viewBox="0 0 512 512" width="512px" xml:space="preserve" xmlns="http://www.w3.org/2000/svg" xmlns:xlink="http://www.w3.org/1999/xlink"><g><path d="M437.012,74.985C390.66,28.631,326.733,0,255.997,0S121.334,28.631,74.982,74.985C28.636,121.337,0,185.266,0,255.998   c0,70.734,28.636,134.663,74.982,181.012C121.334,483.367,185.261,512,255.997,512s134.663-28.633,181.015-74.99   C483.358,390.661,512,326.732,512,255.998C512,185.266,483.358,121.337,437.012,74.985z"/><path clip-rule="evenodd" d="M373.646,236.01l-1.849-4.251l-3.393-2.547   c-4.393-3.262-26.364,0.142-32.316-5.106c-4.402-3.969-5.104-10.915-6.104-20.268c-2.403-18.147-3.958-19.278-6.796-25.372   c-10.491-21.975-38.702-38.557-57.974-40.831h-52.597c-41.106,0-74.982,33.737-74.982,74.707v36.712v50.6   c0,41.114,33.876,74.569,74.982,74.569h86.186c41.389,0,74.842-33.455,75.134-74.569l0.425-49.749v-10.633L373.646,236.01z    M213.755,198.733h41.535c7.937,0,14.313,6.379,14.313,14.315c0,7.798-6.377,14.318-14.313,14.318h-41.535   c-8.078,0-14.454-6.521-14.454-14.318C199.301,205.112,205.677,198.733,213.755,198.733L213.755,198.733z M298.239,312.838h-84.484   c-8.078,0-14.454-6.376-14.454-14.313c0-7.798,6.376-14.177,14.454-14.177h84.484c7.8,0,14.177,6.379,14.177,14.177   C312.416,306.462,306.039,312.838,298.239,312.838L298.239,312.838z" fill="#FFFFFF" fill-rule="evenodd"/></g></svg>