<svg width="128" height="128" viewBox="0 0 128 128" fill="none" xmlns="http://www.w3.org/2000/svg">
<g clip-path="url(#clip0_2_2)">
<rect width="128" height="128" rx="13" fill="#0F172A"/>
<path d="M67.5758 37.8C77.1278 37.8 83.7758 39.504 87.5198 42.912C91.2638 46.272 93.1358 51.024 93.1358 57.168C93.1358 61.392 92.3918 64.992 90.9038 67.968C89.4158 70.896 86.7998 73.2 83.0558 74.88C79.3118 76.512 74.1518 77.328 67.5758 77.328H52.5998V90H34.8878C35.2718 80.688 35.4638 71.976 35.4638 63.864C35.4638 55.752 35.2718 47.04 34.8878 37.728H52.5998V37.8H67.5758ZM62.5358 63.432C66.5198 63.432 69.4958 63.288 71.4638 63C73.4798 62.664 74.8718 62.088 75.6398 61.272C76.4558 60.456 76.8638 59.256 76.8638 57.672C76.8638 56.088 76.4798 54.912 75.7118 54.144C74.9918 53.328 73.6238 52.776 71.6078 52.488C69.6398 52.2 66.6158 52.056 62.5358 52.056H52.5998V63.432H62.5358Z" fill="white"/>
</g>
<defs>
<clipPath id="clip0_2_2">
<rect width="128" height="128" rx="13" fill="white"/>
</clipPath>
</defs>
</svg>
